# xmcd CD database file
#
# Track frame offsets:
#	150
#	3738
#	21257
#	36000
#	55332
#	71189
#	85783
#	88329
#	105106
#	122003
#	137608
#	152640
#	156686
#	176136
#	190915
#
# Disc length: 2804 seconds
#
# Revision: 4
# Processed by: cddbd v1.5.1PL2 Copyright (c) Steve Scherf et al.
# Submitted via: CDex 1.51
#
DISCID=cb0af20f
DTITLE=Kiss - Because I'm A Girl
DYEAR=2001
DGENRE=Pop
TTITLE0=Intro (Noise Sample)
TTITLE1=True Love
TTITLE2=Got The Phone
TTITLE3=Because I'm A Girl
TTITLE4=Good Luck
TTITLE5=Who Can See Me
TTITLE6=Middletro (Noise Sample)
TTITLE7=Without You
TTITLE8=Your Mind
TTITLE9=Problem
TTITLE10=Chakage Salja
TTITLE11=Outro
TTITLE12=Because I'm A Girl (Inst)
TTITLE13=Got The Phone (Inst)
TTITLE14=Because I'm A Girl (Jini Narration)
EXTD=\n YEAR: 2001
EXTT0=
EXTT1=
EXTT2=
EXTT3=
EXTT4=
EXTT5=
EXTT6=
EXTT7=
EXTT8=
EXTT9=
EXTT10=
EXTT11=
EXTT12=
EXTT13=
EXTT14=
PLAYORDER=
